<?xml version="1.0" encoding="UTF-8"?>
<svg version="1.1" xmlns="http://www.w3.org/2000/svg" width="65" height="62">
<path d="M0 0 C21.45 0 42.9 0 65 0 C65 20.46 65 40.92 65 62 C43.55 62 22.1 62 0 62 C0 41.54 0 21.08 0 0 Z " fill="#080808" transform="translate(0,0)"/>
<path d="M0 0 C2.97 0 5.94 0 9 0 C9.33 4.29 9.66 8.58 10 13 C11.423125 12.01 12.84625 11.02 14.3125 10 C18.625 7 18.625 7 22 7 C25 12.625 25 12.625 25 16 C21.7 17.65 18.4 19.3 15 21 C15 21.66 15 22.32 15 23 C17.24883311 24.59395916 17.24883311 24.59395916 20 26.125 C20.928125 26.66382812 21.85625 27.20265625 22.8125 27.7578125 C23.534375 28.16773437 24.25625 28.57765625 25 29 C23.75023244 32.65316671 23.32901247 33.78065836 20 36 C16.13238697 34.71266136 12.6641131 32.81050295 9 31 C9 35.29 9 39.58 9 44 C6.03 44 3.06 44 0 44 C0 39.38 0 34.76 0 30 C-1.65 30.99 -3.3 31.98 -5 33 C-5.66 33 -6.32 33 -7 33 C-8.14769226 29.55692321 -8 26.59905765 -8 23 C-7.34 23 -6.68 23 -6 23 C-8.7819368 19.72713318 -12.27954067 18.03572303 -16 16 C-15.5020163 12.26512223 -15.12508244 10.18762365 -13 7 C-11.02 7.66 -9.04 8.32 -7 9 C-7 9.66 -7 10.32 -7 11 C-6.21625 11.309375 -5.4325 11.61875 -4.625 11.9375 C-2 13 -2 13 0 14 C0 9.38 0 4.76 0 0 Z " fill="#EEEEEE" transform="translate(31,13)"/>
<path d="M0 0 C0 3 0 6 0 9 C-1.32 9.33 -2.64 9.66 -4 10 C-5.98 6.535 -5.98 6.535 -8 3 C-3.375 0 -3.375 0 0 0 Z " fill="#E2E2E2" transform="translate(22,39)"/>
<path d="M0 0 C1.5625 1.125 1.5625 1.125 3 3 C2.6875 6.1875 2.6875 6.1875 2 9 C2.66 9 3.32 9 4 9 C4.33 10.65 4.66 12.3 5 14 C1.7 13.67 -1.6 13.34 -5 13 C-4.67 12.34 -4.34 11.68 -4 11 C-1.9375 10.375 -1.9375 10.375 0 10 C-0.185625 9.4225 -0.37125 8.845 -0.5625 8.25 C-1.04023546 5.79307475 -0.75729364 4.35602466 0 2 C-0.99 1.67 -1.98 1.34 -3 1 C-2.01 0.67 -1.02 0.34 0 0 Z " fill="#525252" transform="translate(22,37)"/>
<path d="M0 0 C0.598125 0.350625 1.19625 0.70125 1.8125 1.0625 C0.8225 3.0425 -0.1675 5.0225 -1.1875 7.0625 C-2.1775 7.0625 -3.1675 7.0625 -4.1875 7.0625 C-3.98125 6.27875 -3.775 5.495 -3.5625 4.6875 C-3.43875 3.82125 -3.315 2.955 -3.1875 2.0625 C-3.8475 1.4025 -4.5075 0.7425 -5.1875 0.0625 C-2.1875 -0.9375 -2.1875 -0.9375 0 0 Z " fill="#1D1D1D" transform="translate(58.1875,39.9375)"/>
<path d="M0 0 C1.5625 1.0625 1.5625 1.0625 3 3 C2.6875 6.6875 2.6875 6.6875 2 10 C1.01 9.34 0.02 8.68 -1 8 C-0.67 6.02 -0.34 4.04 0 2 C-0.99 1.67 -1.98 1.34 -3 1 C-2.01 0.67 -1.02 0.34 0 0 Z " fill="#6A6A6A" transform="translate(22,37)"/>
<path d="M0 0 C0.99 0 1.98 0 3 0 C2.67 1.65 2.34 3.3 2 5 C0.68 5 -0.64 5 -2 5 C-2 4.34 -2 3.68 -2 3 C-1.34 3 -0.68 3 0 3 C0 2.01 0 1.02 0 0 Z " fill="#EAEAEA" transform="translate(19,39)"/>
</svg>
